<svg width="95" height="30" fill="none" xmlns="http://www.w3.org/2000/svg"><path fill-rule="evenodd" clip-rule="evenodd" d="M27.047 20.665c.057.148.114.297.17.43.38 1.096.476 2.096.143 3.143-.332 2.19-1.757 4.095-3.847 4.905-.713.333-1.568.476-2.375.476-.238 0-.523 0-.76-.048-.95-.095-1.948-.428-2.945-1-1.188-.714-2.375-1.666-3.658-3.095-1.282 1.429-2.422 2.429-3.657 3.095-.95.572-1.948.905-2.945 1-.119 0-.25.012-.38.024s-.262.024-.38.024a5.881 5.881 0 01-2.375-.476C1.995 28.333.523 26.476.19 24.238c-.19-1.047-.047-2.095.333-3.19.142-.381.285-.715.427-1.048a37.14 37.14 0 00.665-1.524l.048-.047c2.042-4.477 4.275-9 6.555-13.429l.095-.19c.237-.429.475-.905.712-1.381a8.35 8.35 0 011.093-1.667C11.115.667 12.445 0 13.918 0c1.425 0 2.802.667 3.752 1.857.425.468.697.974.954 1.45l.091.17c.238.475.475.952.713 1.38l.095.19c2.327 4.477 4.512 9 6.555 13.43l.047.047c.19.476.428 1 .665 1.524.086.171.171.394.257.617zM50.065 7.428a1.959 1.959 0 01-1.947 1.953 1.929 1.929 0 01-1.948-1.953c0-1.095.808-1.952 1.948-1.952 1.14.095 1.947.952 1.947 1.952zm-7.932 3.905v.477s-.903-1.19-2.85-1.19c-3.23 0-5.748 2.475-5.748 5.856s2.47 5.857 5.748 5.857c1.995 0 2.85-1.238 2.85-1.238v.524c0 .238.19.429.427.429h2.375V10.905H42.56c-.237 0-.427.238-.427.428zm-2.375 8.381c1.045 0 1.947-.571 2.375-1.238v-3.905c-.38-.666-1.33-1.238-2.375-1.238-1.853 0-3.325 1.19-3.325 3.19s1.425 3.191 3.325 3.191zm6.982-8.81h2.85v11.144h-2.85V10.905zm39.568.906s.902-1.19 2.85-1.19c3.23 0 5.747 2.475 5.7 5.904 0 3.38-2.518 5.857-5.748 5.857-1.948 0-2.85-1.238-2.85-1.238v.524c0 .238-.19.428-.428.428h-2.374V5.572h2.85v6.238zm2.375 7.857c-1.093 0-1.948-.572-2.375-1.239v-4c.427-.57 1.377-1.238 2.375-1.238 1.9 0 3.325 1.19 3.325 3.19s-1.425 3.287-3.325 3.287zm-6.698 2.476v-6.667c0-1.905-.38-2.952-1.425-3.81-.807-.713-1.852-1.047-3.087-1.047-1.093 0-2.233.334-3.04 1.19v-.476a.426.426 0 00-.428-.428h-2.232v11.19h2.85v-7.762c.57-.666 1.472-1.095 2.327-1.095 1.615 0 2.185.715 2.185 2.572v6.333h2.85zm-17.1-11.524c-1.947 0-2.85 1.19-2.85 1.19V5.573h-2.85v16.523h2.375c.238 0 .428-.19.428-.428v-.524s.902 1.238 2.85 1.238c3.23 0 5.747-2.476 5.747-5.857.048-3.429-2.47-5.905-5.7-5.905zm-2.85 7.81c.428.666 1.283 1.238 2.375 1.238 1.9 0 3.325-1.286 3.325-3.286s-1.425-3.19-3.325-3.19c-.997 0-1.947.666-2.375 1.237v4zm-5.32-7.81c.855 0 1.283.143 1.283.143v2.619s-2.375-.81-3.848.905v7.81H51.3V10.904h2.375c.238 0 .428.19.428.428v.477c.57-.62 1.757-1.19 2.612-1.19zm-42.845 12c-1.615-2-2.612-3.905-2.992-5.524-.143-.666-.19-1.285-.095-1.81.047-.475.237-.904.475-1.237.57-.81 1.52-1.286 2.612-1.286 1.093 0 2.09.476 2.613 1.286.237.333.427.762.475 1.238.095.524.047 1.143-.095 1.81-.38 1.57-1.425 3.476-2.993 5.523zm9.073 4.857c1.472-.619 2.517-1.952 2.707-3.476.143-.762.048-1.524-.285-2.333a13.214 13.214 0 00-.38-.953 13.803 13.803 0 01-.332-.738c-.107-.25-.214-.5-.333-.738v-.047a486.95 486.95 0 00-6.46-13.334l-.095-.19a36.573 36.573 0 00-.712-1.381c-.238-.476-.475-.905-.808-1.286a3.113 3.113 0 00-2.375-1.095c-.902 0-1.757.38-2.375 1.095a8.44 8.44 0 00-.807 1.286c-.238.476-.475.952-.713 1.38l-.095.191c-2.28 4.381-4.465 8.905-6.507 13.334l-.048.047c-.237.476-.475 1-.665 1.476-.065.175-.13.33-.191.474-.072.17-.137.324-.189.479A4.53 4.53 0 001.995 24c.238 1.524 1.235 2.905 2.708 3.476.665.238 1.425.381 2.232.286A6.22 6.22 0 009.168 27c1.045-.571 2.137-1.476 3.372-2.857-1.9-2.381-3.135-4.62-3.562-6.572a6.622 6.622 0 01-.143-2.523c.143-.715.38-1.429.808-2 .902-1.286 2.47-2.096 4.18-2.096 1.71 0 3.277.762 4.18 2.096.427.571.712 1.238.807 2 .095.761.048 1.619-.142 2.524-.428 1.952-1.615 4.19-3.563 6.57 1.235 1.334 2.328 2.287 3.373 2.858.76.429 1.472.667 2.232.762.76.095 1.52 0 2.233-.286z" fill="#FF5A5F"/></svg>