<svg width="10" height="15" fill="none" xmlns="http://www.w3.org/2000/svg"><path d="M5.54 8.219c1.374.351 1.944.875 1.944 1.765 0 .961-.773 1.664-1.945 1.813V8.219zM4.554 6.32c-1.274-.351-1.79-.836-1.79-1.68 0-.93.68-1.57 1.79-1.71v3.39zm.984.242V2.938c1.016.157 1.703.797 1.82 1.727h1.57c-.077-1.766-1.421-3-3.39-3.18v-.86h-.984v.852C2.46 1.64 1.117 2.898 1.117 4.742c0 1.664.977 2.672 3.078 3.164l.36.086v3.805c-1.188-.149-1.992-.836-2.11-1.828H.844c.101 1.898 1.523 3.133 3.71 3.281v.852h.985v-.86c2.211-.172 3.594-1.46 3.594-3.406 0-1.711-.938-2.656-3.188-3.18l-.406-.093z" fill="#5A7184"/></svg>