<svg width="41" height="40" fill="none" xmlns="http://www.w3.org/2000/svg"><path opacity=".3" fill-rule="evenodd" clip-rule="evenodd" d="M33.886 27.977V9.6a4.01 4.01 0 013.2 3.932v20.865a.8.8 0 01-1.01.775c-2.057-.56-6.87-2.082-7.612-2.281-1.564-.42-3.052-.676-4.905-.804 2.358-1.135 4.992-1.702 7.927-1.702 1.326 0 2.4-1.078 2.4-2.408zM6.686 9.6v18.377a2.404 2.404 0 002.4 2.408c2.96 0 5.599.567 7.942 1.701-1.86.127-3.352.385-4.92.805-.743.199-5.555 1.72-7.612 2.28a.8.8 0 01-1.01-.774V13.532a4.01 4.01 0 013.2-3.932z" fill="#1565D8"/><path fill-rule="evenodd" clip-rule="evenodd" d="M19.486 31.998c-2.986-1.915-6.446-2.873-10.4-2.873a.805.805 0 01-.8-.81V5.61c0-.448.358-.811.8-.811 3.9 0 7.372.867 10.4 2.601v24.597zm1.6-24.589c3.06-1.74 6.532-2.609 10.4-2.609.442 0 .8.363.8.81v22.704a.805.805 0 01-.8.811c-3.923 0-7.384.959-10.4 2.875V7.41z" fill="#1565D8"/></svg>