<svg width="41" height="40" fill="none" xmlns="http://www.w3.org/2000/svg"><path fill-rule="evenodd" clip-rule="evenodd" d="M35.23 5.695c1.087 5.83-1.347 12.014-6.237 15.883l-12.957 10.25a.8.8 0 01-1.062-.062L8.52 25.313a.8.8 0 01-.061-1.063l10.25-12.956c3.868-4.89 10.052-7.325 15.882-6.239a.8.8 0 01.64.64zm-11.372 5.077a4 4 0 105.657 5.656 4 4 0 00-5.657-5.656zm4.525 4.525a2.4 2.4 0 11-3.394-3.394 2.4 2.4 0 013.394 3.394z" fill="#1565D8"/><path opacity=".3" fill-rule="evenodd" clip-rule="evenodd" d="M13.086 32.25l-.71.711a2.18 2.18 0 01-3.084 0l-1.967-1.967a2.18 2.18 0 010-3.083l.71-.711 5.051 5.05zM8.882 20.8l-3.428-2.28a.821.821 0 01-.058-1.326l6.19-4.918a4.962 4.962 0 014.698-.806L8.882 20.8zM28.793 24a4.974 4.974 0 01-.804 4.797l-4.903 6.093a.819.819 0 01-1.325-.058l-2.275-3.43L28.793 24z" fill="#1565D8"/></svg>