<svg width="41" height="40" fill="none" xmlns="http://www.w3.org/2000/svg"><path opacity=".3" fill-rule="evenodd" clip-rule="evenodd" d="M19.532 31.755l1.134 1.134a1.182 1.182 0 01-1.672 1.67l-3.15-3.15a1.182 1.182 0 010-1.671l3.15-3.152a1.182 1.182 0 111.672 1.672l-1.134 1.133h7.782v2.364h-7.782zM32.04 19.842l1.134-1.134a1.182 1.182 0 011.671 1.671l-3.151 3.152a1.178 1.178 0 01-1.671 0l-3.152-3.152a1.182 1.182 0 111.672-1.67l1.133 1.133V12.06h2.364v7.782zM20.128 9.696h-7.782V7.333h7.782l-1.134-1.134a1.182 1.182 0 111.672-1.671l3.15 3.151a1.18 1.18 0 010 1.671l-3.15 3.151a1.182 1.182 0 11-1.672-1.67l1.134-1.135zM7.62 19.246l-1.134 1.133a1.182 1.182 0 11-1.671-1.67l3.151-3.152a1.182 1.182 0 011.671 0l3.152 3.151a1.182 1.182 0 11-1.672 1.671l-1.134-1.134v7.783H7.62v-7.782z" fill="#1565D8"/><path fill-rule="evenodd" clip-rule="evenodd" d="M14.315 11.666V5.363A2.363 2.363 0 0011.952 3H5.65a2.363 2.363 0 00-2.364 2.363v6.303a2.363 2.363 0 002.364 2.363h6.302a2.363 2.363 0 002.363-2.363zm-2.363 13.392H5.65a2.363 2.363 0 00-2.364 2.364v6.302a2.363 2.363 0 002.364 2.364h6.302a2.363 2.363 0 002.363-2.364v-6.302a2.363 2.363 0 00-2.363-2.364zM34.011 14.03h-6.303a2.363 2.363 0 01-2.363-2.363V5.363A2.363 2.363 0 0127.708 3h6.303a2.363 2.363 0 012.363 2.363v6.303a2.363 2.363 0 01-2.364 2.363zm-8.666 13.393v6.302a2.363 2.363 0 002.363 2.364h6.303a2.363 2.363 0 002.363-2.364v-6.302a2.363 2.363 0 00-2.364-2.364h-6.302a2.363 2.363 0 00-2.363 2.364z" fill="#1565D8"/></svg>