<svg width="40" height="40" fill="none" xmlns="http://www.w3.org/2000/svg"><path fill-rule="evenodd" clip-rule="evenodd" d="M5.6 3.2h19.2a2.4 2.4 0 012.4 2.4v19.2a2.4 2.4 0 01-2.4 2.4H5.6a2.4 2.4 0 01-2.4-2.4V5.6a2.4 2.4 0 012.4-2.4zm28 9.6h.8a2.4 2.4 0 012.4 2.4v19.2a2.4 2.4 0 01-2.4 2.4H15.2a2.4 2.4 0 01-2.4-2.4v-.8h16.8a4 4 0 004-4V12.8z" fill="#1565D8"/><path opacity=".3" fill-rule="evenodd" clip-rule="evenodd" d="M28.8 8h.8a2.4 2.4 0 012.4 2.4v19.2a2.4 2.4 0 01-2.4 2.4H10.4A2.4 2.4 0 018 29.6v-.8h16.8a4 4 0 004-4V8z" fill="#1565D8"/></svg>