<svg width="41" height="40" fill="none" xmlns="http://www.w3.org/2000/svg"><path fill-rule="evenodd" clip-rule="evenodd" d="M11.779 15.702c2.103-2.988 3.415-6.417 3.942-10.299a.962.962 0 01.67-.788c3.622-1.12 5.68.66 5.647 4.72a37.82 37.82 0 01-.12 2.56c-.174 2.394-.16 3.047.108 3.487.258.422 1.094.567 3.072.191a47.97 47.97 0 001.943-.414c.306-.071 2.51-.61 3.074-.73 1.075-.233 1.847-.331 2.525-.29 1.837.113 2.813 1.296 2.981 3.563.297 3.991-.62 12.01-1.535 14.963-.934 3.017-2.564 4.157-6.477 4.225-2.516.045-6.385.045-11.625 0-1.338-.03-2.55-.29-3.629-.774a4.747 4.747 0 00.473-2.07v-15.36a4.753 4.753 0 00-1.05-2.984z" fill="#1565D8"/><path opacity=".3" fill-rule="evenodd" clip-rule="evenodd" d="M6.049 15.806c-1.605 0-2.906 1.29-2.906 2.88v15.36c0 1.59 1.301 2.88 2.906 2.88h1.936c1.605 0 2.906-1.29 2.906-2.88v-15.36c0-1.59-1.301-2.88-2.906-2.88H6.05z" fill="#1565D8"/></svg>