<svg width="40" height="40" fill="none" xmlns="http://www.w3.org/2000/svg"><path opacity=".3" fill-rule="evenodd" clip-rule="evenodd" d="M19.245 31.755l1.134 1.134a1.182 1.182 0 11-1.67 1.671l-3.152-3.151a1.182 1.182 0 010-1.671l3.151-3.152a1.182 1.182 0 011.671 1.672l-1.134 1.134h7.783v2.363h-7.782zm12.51-11.913l1.134-1.134a1.182 1.182 0 111.67 1.672l-3.15 3.15a1.178 1.178 0 01-1.671 0l-3.152-3.15a1.182 1.182 0 111.672-1.672l1.133 1.134V12.06h2.364v7.782zM19.842 9.696H12.06V7.333h7.782l-1.134-1.134a1.182 1.182 0 011.671-1.671l3.152 3.151c.461.462.461 1.21 0 1.671l-3.152 3.151a1.182 1.182 0 01-1.67-1.67l1.133-1.135zm-12.51 9.55L6.2 20.38a1.182 1.182 0 11-1.671-1.672l3.151-3.15a1.182 1.182 0 011.671 0l3.151 3.15a1.182 1.182 0 11-1.67 1.672l-1.135-1.134v7.782H7.333v-7.782z" fill="#1565D8"/><path fill-rule="evenodd" clip-rule="evenodd" d="M14.03 11.666V5.363A2.363 2.363 0 0011.665 3H5.363A2.363 2.363 0 003 5.363v6.303a2.363 2.363 0 002.363 2.363h6.303a2.363 2.363 0 002.363-2.363zm-2.364 13.392H5.363A2.363 2.363 0 003 27.422v6.302a2.363 2.363 0 002.363 2.364h6.303a2.363 2.363 0 002.363-2.364v-6.302a2.364 2.364 0 00-2.363-2.364zM33.724 14.03h-6.302a2.364 2.364 0 01-2.364-2.363V5.363A2.363 2.363 0 0127.422 3h6.302a2.363 2.363 0 012.364 2.363v6.303a2.363 2.363 0 01-2.364 2.363zM25.06 27.422v6.302a2.363 2.363 0 002.363 2.364h6.302a2.363 2.363 0 002.364-2.364v-6.302a2.363 2.363 0 00-2.364-2.364h-6.302a2.364 2.364 0 00-2.364 2.364z" fill="#1565D8"/></svg>