<svg width="40" height="40" fill="none" xmlns="http://www.w3.org/2000/svg"><path fill-rule="evenodd" clip-rule="evenodd" d="M36.577 32H3.424l2.653-7.959.014-.041h27.82l.013.041L36.577 32zM16.8 27.2a.8.8 0 100 1.6h6.4a.8.8 0 000-1.6h-6.4zM6.4 22.4V7.2a2.4 2.4 0 012.4-2.4h22.4a2.4 2.4 0 012.4 2.4v15.2H6.4zm9.16-12.743l-1.347-.98-3.69 5.073 3.69 5.073 1.348-.98-2.977-4.093 2.977-4.093zm8.297 0l2.976 4.093-2.976 4.093 1.348.98 3.69-5.073-3.69-5.073-1.348.98zm-3.109-2.372l-3.333 12.5 1.61.43 3.334-12.5-1.61-.43z" fill="#1565D8"/><path opacity=".3" fill-rule="evenodd" clip-rule="evenodd" d="M36.72 33.6a4.001 4.001 0 01-3.92 3.2H7.2a4.001 4.001 0 01-3.92-3.2h33.44z" fill="#1565D8"/></svg>