<svg width="40" height="40" fill="none" xmlns="http://www.w3.org/2000/svg"><path fill-rule="evenodd" clip-rule="evenodd" d="M5.6 3.2h9.6a2.4 2.4 0 012.4 2.4v9.6a2.4 2.4 0 01-2.4 2.4H5.6a2.4 2.4 0 01-2.4-2.4V5.6a2.4 2.4 0 012.4-2.4zm19.2 19.2h9.6a2.4 2.4 0 012.4 2.4v9.6a2.4 2.4 0 01-2.4 2.4h-9.6a2.4 2.4 0 01-2.4-2.4v-9.6a2.4 2.4 0 012.4-2.4z" fill="#1565D8"/><path opacity=".3" fill-rule="evenodd" clip-rule="evenodd" d="M24.8 3.2h9.6a2.4 2.4 0 012.4 2.4v9.6a2.4 2.4 0 01-2.4 2.4h-9.6a2.4 2.4 0 01-2.4-2.4V5.6a2.4 2.4 0 012.4-2.4zM5.6 22.4h9.6a2.4 2.4 0 012.4 2.4v9.6a2.4 2.4 0 01-2.4 2.4H5.6a2.4 2.4 0 01-2.4-2.4v-9.6a2.4 2.4 0 012.4-2.4z" fill="#1565D8"/></svg>