<svg width="91" height="24" fill="none" xmlns="http://www.w3.org/2000/svg"><path fill-rule="evenodd" clip-rule="evenodd" d="M13.13 1.766c0 .951-.816 1.766-1.766 1.766-.951 0-1.766-.815-1.766-1.766 0-.95.815-1.766 1.766-1.766.95 0 1.765.815 1.765 1.766zm-1.767 3.215a1.836 1.836 0 00-1.856 1.857c0 1.041.815 1.856 1.857 1.856a1.836 1.836 0 001.856-1.856c0-1.087-.815-1.857-1.857-1.857zm-1.9 6.838c0-1.042.86-1.902 1.9-1.902 1.042 0 1.948.906 1.902 1.902 0 1.041-.86 1.902-1.901 1.902a1.913 1.913 0 01-1.902-1.902zm1.9 3.17a1.836 1.836 0 00-1.856 1.856c0 1.042.815 1.857 1.857 1.857a1.836 1.836 0 001.856-1.857c0-.996-.815-1.856-1.857-1.856zm-1.765 6.883c0-.951.815-1.766 1.766-1.766.95 0 1.765.815 1.765 1.766 0 .95-.814 1.766-1.765 1.766-.95 0-1.766-.815-1.766-1.766zm6.655-17.163a2.107 2.107 0 00-2.083 2.083c0 1.133.951 2.084 2.083 2.084a2.107 2.107 0 002.083-2.084 2.107 2.107 0 00-2.083-2.083zm-2.173 7.155c0-1.222.95-2.173 2.173-2.173s2.173.95 2.173 2.173-.95 2.174-2.173 2.174a2.145 2.145 0 01-2.173-2.174zm2.173 2.853A2.107 2.107 0 0014.17 16.8c0 1.132.951 2.083 2.083 2.083a2.107 2.107 0 002.083-2.083c0-1.087-.951-2.083-2.083-2.083zm2.671-2.853c0-1.358 1.132-2.4 2.4-2.4 1.267 0 2.309 1.042 2.4 2.4 0 1.359-1.042 2.4-2.4 2.4-1.358 0-2.4-1.132-2.4-2.4zM6.43 5.208c-.86 0-1.585.724-1.585 1.584 0 .86.725 1.585 1.585 1.585s1.584-.724 1.584-1.585c0-.86-.724-1.584-1.584-1.584zm-1.675 6.656c0-.95.724-1.675 1.675-1.675.95 0 1.675.724 1.675 1.675 0 .951-.724 1.676-1.675 1.676-.95 0-1.675-.725-1.675-1.676zm1.675 3.351c-.86 0-1.585.725-1.585 1.585s.725 1.585 1.585 1.585 1.584-.725 1.584-1.585-.724-1.585-1.584-1.585zM0 11.865c0-.816.634-1.45 1.449-1.45a1.43 1.43 0 011.449 1.45 1.43 1.43 0 01-1.45 1.448A1.43 1.43 0 010 11.864z" fill="#00B0B9"/><path d="M41.788 8.74c-.181 0-.317.18-.317.316v12.59c0 .18.18.316.317.316h1.539c.181 0 .317-.181.317-.317V9.056c0-.18-.181-.316-.317-.316h-1.54zm.815-5.299a1.43 1.43 0 00-1.45 1.45c0 .815.635 1.449 1.45 1.449a1.43 1.43 0 001.448-1.45 1.43 1.43 0 00-1.448-1.449zM74.068 8.74c-.181 0-.317.18-.317.316v12.59c0 .18.181.316.317.316h1.54c.18 0 .316-.181.316-.317V9.056c0-.18-.181-.316-.317-.316h-1.54zm.724-5.299a1.43 1.43 0 00-1.449 1.45 1.43 1.43 0 001.449 1.449 1.43 1.43 0 001.449-1.45 1.43 1.43 0 00-1.449-1.449z" fill="#002A3A"/><path fill-rule="evenodd" clip-rule="evenodd" d="M90.177 20.589a.286.286 0 01-.093.15c0 .091-.1.182-.3.136l.077.085a.082.082 0 01-.027.006h-.35v-.543h.35c.1 0 .2 0 .25.09.06 0 .084.032.093.076zm-.693.377h-.05v.407h-.2v-1.132h.65c.1 0 .2.091.2.091.1 0 .1.09.1.09v.091c0 .019 0 .045-.007.076.007.03.007.068.007.105 0 .09 0 .181-.1.181a.375.375 0 00-.165.057.534.534 0 01-.058.028l.373.413h-.2l-.35-.407h-.2z" fill="#002A3A"/><path fill-rule="evenodd" clip-rule="evenodd" d="M88.646 20.83c0-.543.498-1.041 1.041-1.041.544 0 1.042.498 1.042 1.041 0 .544-.498 1.042-1.042 1.042-.543 0-1.041-.498-1.041-1.042zm.09 0c0 .544.408.951.951.951.498 0 .95-.407.95-.95a.928.928 0 00-.95-.952.928.928 0 00-.95.951z" fill="#002A3A"/><path d="M54.283 10.822c.181 0 .317-.18.317-.316v-1.54c0-.181-.181-.317-.317-.317H51.07v-4.8c0-.181-.181-.317-.317-.317h-1.54c-.18 0-.316.181-.316.317v4.8H47.31c-.181 0-.317.181-.317.317v1.54c0 .18.181.316.317.316h1.585v7.291c0 2.264 1.539 3.668 3.667 3.668h1.584c.181 0 .317-.181.317-.317v-1.54c0-.18-.18-.316-.317-.316H52.79c-1.041 0-1.766-.725-1.766-1.857v-7.019h3.215l.045.09zm31.873 0c.18 0 .317-.18.317-.316v-1.54c0-.181-.181-.317-.317-.317H82.94v-4.8c0-.181-.18-.317-.317-.317h-1.539c-.181 0-.317.181-.317.317v4.8h-1.584c-.181 0-.317.181-.317.317v1.54c0 .18.18.316.317.316h1.584v7.291c0 2.264 1.54 3.668 3.667 3.668h1.585c.181 0 .317-.181.317-.317v-1.54c0-.18-.181-.316-.317-.316h-1.358c-1.042 0-1.766-.725-1.766-1.857v-7.019H86.2l-.045.09zm-53.876 0v10.733c0 .18.181.317.317.317h1.54c.18 0 .316-.182.316-.317V10.823h3.531c.182 0 .317-.182.317-.318v-1.54c0-.18-.18-.316-.317-.316h-3.53V5.84c0-1.132.814-1.902 1.765-1.902h1.765c.182 0 .317-.18.317-.317v-1.54c0-.18-.18-.316-.317-.316H36.31c-2.263 0-3.984 1.856-3.984 3.985v2.898h-1.584c-.181 0-.317.181-.317.317v1.54c0 .18.18.316.317.316h1.539z" fill="#002A3A"/><path fill-rule="evenodd" clip-rule="evenodd" d="M64.289 8.241c1.766 0 3.44.725 4.663 1.993 1.222 1.313 1.856 3.034 1.72 4.98 0 4.891-3.26 7.065-6.474 7.065-3.169 0-6.474-2.174-6.474-7.064V1.992c0-.136.136-.317.317-.317h1.54c.135 0 .316.136.316.317v8.015c1.041-1.041 2.717-1.766 4.392-1.766zm-4.392 7.02c0 2.4 1.178 4.98 4.392 4.98 3.214 0 4.346-2.535 4.391-4.98 0-2.899-1.765-4.891-4.391-4.891-2.626 0-4.392 1.947-4.392 4.89z" fill="#002A3A"/></svg>