<svg width="79" height="26" fill="none" xmlns="http://www.w3.org/2000/svg"><path d="M19.455 9.14h-9.197v2.717h6.524c-.314 3.822-3.498 5.476-6.524 5.476-3.852 0-7.193-3.033-7.193-7.288.04-4.136 3.223-7.288 7.232-7.288 3.105 0 4.913 1.97 4.913 1.97l1.926-1.97S14.7.04 10.22.04C4.48 0 .118 4.806.118 10.006c0 5.082 4.127 10.045 10.219 10.045 5.345 0 9.275-3.663 9.275-9.1 0-1.142-.157-1.812-.157-1.812z" fill="#4885ED"/><path fill-rule="evenodd" clip-rule="evenodd" d="M20.477 13.552c0-3.428 2.712-6.382 6.485-6.382 3.105 0 6.446 2.166 6.446 6.46 0 3.703-2.87 6.421-6.407 6.421-3.89 0-6.524-2.993-6.524-6.5zm10.14.039c0-2.403-1.768-3.9-3.615-3.9-2.083 0-3.695 1.654-3.656 3.86 0 2.285 1.612 3.94 3.656 3.94 1.886 0 3.616-1.536 3.616-3.9z" fill="#DB3236"/><path fill-rule="evenodd" clip-rule="evenodd" d="M34.548 13.552c0-3.428 2.712-6.382 6.485-6.382 3.105 0 6.446 2.166 6.446 6.46 0 3.703-2.87 6.421-6.407 6.421-3.89 0-6.524-2.993-6.524-6.5zm10.14.039c0-2.403-1.768-3.9-3.616-3.9-2.083 0-3.694 1.654-3.655 3.86 0 2.285 1.612 3.94 3.655 3.94 1.887 0 3.616-1.536 3.616-3.9z" fill="#F4C20D"/><path fill-rule="evenodd" clip-rule="evenodd" d="M48.658 13.63c0-3.427 2.712-6.46 6.17-6.46 1.494 0 2.634.59 3.42 1.497V7.564h2.712v11.542c0 4.57-2.634 6.736-6.053 6.736-3.144 0-4.913-1.93-5.778-3.781l2.516-1.025c.353.828 1.336 2.285 3.301 2.285 2.044 0 3.38-1.34 3.38-3.545v-1.26c-.746.826-1.69 1.575-3.537 1.575-2.987 0-6.131-2.6-6.131-6.46zm9.826 0c0-2.482-1.73-3.94-3.42-3.94-1.808 0-3.577 1.459-3.616 3.94 0 2.403 1.73 3.9 3.577 3.9 1.73 0 3.459-1.379 3.459-3.9z" fill="#4885ED"/><path fill-rule="evenodd" clip-rule="evenodd" d="M66.973 13.552c0-3.822 2.751-6.422 6.014-6.422 2.554 0 4.48 1.734 5.345 3.703l.432 1.064-8.607 3.585c.51.985 1.336 1.97 3.144 1.97 1.611 0 2.555-.867 3.144-1.773l2.24 1.497c-.982 1.34-2.672 2.836-5.384 2.836-3.262 0-6.328-2.403-6.328-6.46zm8.49-2.56c-.393-.75-1.218-1.38-2.398-1.38-1.847 0-3.615 1.93-3.38 3.782l5.778-2.403z" fill="#DB3236"/><path d="M62.846 19.658h2.83V.67h-2.83v18.988z" fill="#3CBA54"/></svg>