<svg width="15" height="15" fill="none" xmlns="http://www.w3.org/2000/svg"><path d="M6.406.75c-.383 0-.656.3-.656.656V6H3.344c-.492 0-.739.602-.383.957l4.156 4.156a.546.546 0 00.738 0l4.157-4.156c.355-.355.11-.957-.383-.957H9.25V1.406c0-.355-.3-.656-.656-.656H6.406zM14.5 11.031c0-.355-.3-.656-.656-.656h-4.02l-1.34 1.34a1.372 1.372 0 01-1.996 0l-1.34-1.34H1.156c-.383 0-.656.3-.656.656v3.063c0 .383.273.656.656.656h12.688a.648.648 0 00.656-.656V11.03zm-3.39 2.406a.55.55 0 01-.547.547.549.549 0 01-.547-.546c0-.301.246-.547.546-.547.301 0 .547.246.547.546zm1.75 0a.55.55 0 01-.547.547.549.549 0 01-.547-.546c0-.301.246-.547.546-.547.301 0 .547.246.547.546z" fill="#fff"/></svg>