<svg width="91" height="28" fill="none" xmlns="http://www.w3.org/2000/svg"><path fill-rule="evenodd" clip-rule="evenodd" d="M21.323.969v20.484c0 .271.09.498.272.68a.917.917 0 00.677.273h3.485c.27 0 .495-.09.677-.273a.924.924 0 00.272-.68v-9.397c1.484-1.49 2.874-2.822 4.17-2.822 1.982 0 2.972.76 2.972 3.25v8.97c0 .27.09.497.272.679a.917.917 0 00.677.273h3.47a.936.936 0 00.965-.953v-8.969c0-2.541-.633-4.43-1.899-5.664-1.265-1.234-2.907-1.851-4.924-1.851-2.018 0-3.919.755-5.703 2.265V.97a.944.944 0 00-.272-.696.917.917 0 00-.677-.273h-3.485a.917.917 0 00-.677.273.944.944 0 00-.272.696zM.286 13.867c0 2.86.799 5.05 2.396 6.57 1.598 1.521 3.828 2.282 6.69 2.282 5.15.01 7.646-1.086 8.123-3.547.049-.251-.29-1.046-1.792-1.256-1.503-.211-2.476-.307-2.985.318-.508.625-1.452.938-2.832.938s-2.383-.292-3.01-.875c-.628-.584-.994-1.516-1.097-2.797h11.716c.28 0 .51-.091.692-.273a.944.944 0 00.273-.696v-.89c0-2.792-.799-4.935-2.396-6.43-1.598-1.495-3.823-2.242-6.676-2.242-2.852 0-5.082.768-6.69 2.304C1.09 8.81.286 11.008.286 13.867zm12.697-1.664H5.748c.124-2.458 1.335-3.687 3.633-3.687 2.297 0 3.498 1.229 3.602 3.687zM86.286 14a4 4 0 100-8 4 4 0 000 8zM46.062 24.031l2.039.266c1.238 0 2.16-.773 2.766-2.318.011-.028-.078-.042-.242-.069-.627-.102-2.355-.383-3.862-2.272-1.729-2.165-1.986-3-2.655-5.18v-.001l-.218-.704-2.318-7.547a.822.822 0 01-.047-.29c0-.109.065-.241.194-.398.13-.156.325-.24.584-.25l3.06.013c.3 0 .588.102.863.305s.453.456.537.758l2.038 6.625c.508 1.625 1.024 2.75 1.548 3.375s1.144.937 1.86.937l3.096-10.937c.083-.302.246-.555.49-.758.244-.203.516-.305.817-.305h3.283c.26 0 .451.084.575.25.125.167.187.305.187.414 0 .11-.01.2-.031.274l-4.077 14.593c-.726 2.584-1.626 4.428-2.7 5.532C52.777 27.448 51.395 28 49.704 28l-.65-.003c-1.35-.015-2.33-.076-2.936-.184-.7-.125-1.139-.28-1.315-.461a.883.883 0 01-.264-.633V25a.96.96 0 01.264-.695.91.91 0 01.685-.274h.575zm16.369-2.75c-1.37-.958-2.054-2.312-2.054-4.062 0-1.75.687-3.094 2.062-4.032 1.374-.937 3.145-1.406 5.313-1.406h5.15c0-1.219-.254-2.067-.762-2.547-.508-.479-1.398-.718-2.668-.718-1.186 0-2.042.274-2.569.823l-.108.122c-.513.63-2.13.416-3.572.138-1.443-.278-1.537-1.014-1.408-1.397.724-2.156 3.487-3.233 8.287-3.233 2.469 0 4.45.554 5.944 1.664 1.493 1.11 2.24 2.825 2.24 5.148v9.672c0 .281-.088.51-.264.688a.924.924 0 01-.685.265h-3.003a.91.91 0 01-.685-.273.939.939 0 01-.264-.68v-.484c-1.64 1.177-3.53 1.763-5.672 1.758-2.142-.006-3.902-.487-5.282-1.446zm5.695-5.953h4.776v2.438c-1.483.937-3.023 1.406-4.62 1.406-.8 0-1.417-.182-1.852-.547a1.734 1.734 0 01-.654-1.39c0-.563.21-1.021.63-1.376.42-.354.994-.53 1.72-.53z" fill="#fff"/></svg>