<svg width="105" height="24" fill="none" xmlns="http://www.w3.org/2000/svg"><path fill-rule="evenodd" clip-rule="evenodd" d="M74.65 8.296a4.79 4.79 0 013.5-1.513c2.768 0 5.014 2.4 5.014 5.321 0 2.922-2.246 5.322-5.014 5.322-1.359 0-2.56-.574-3.5-1.513v.94a.337.337 0 01-.314.312H72.56a.337.337 0 01-.313-.313V3.235c0-.157.156-.313.313-.313h1.776c.157 0 .314.156.314.313v5.06zm0 3.86c.052 1.722 1.41 3.13 3.081 3.13 1.672 0 3.083-1.408 3.083-3.182s-1.41-3.182-3.082-3.182c-1.724 0-3.03 1.408-3.083 3.13v.104zm9.611-.052c0-2.922 2.456-5.322 5.433-5.322 2.978 0 5.38 2.348 5.38 5.322s-2.35 5.322-5.38 5.322-5.433-2.4-5.433-5.322zm2.299 0c0 1.774 1.41 3.183 3.082 3.183 1.724 0 3.082-1.409 3.082-3.183 0-1.774-1.359-3.182-3.082-3.182-1.724 0-3.082 1.408-3.082 3.182zM54.746 7.043h1.776c.157 0 .314.157.314.313v9.496a.337.337 0 01-.314.313h-1.776a.337.337 0 01-.313-.313v-.94a4.79 4.79 0 01-3.5 1.514c-2.769 0-5.015-2.4-5.015-5.322s2.246-5.322 5.015-5.322c1.358 0 2.56.574 3.5 1.514v-.94c0-.156.157-.313.313-.313zm-6.425 5.061c0 1.774 1.41 3.183 3.082 3.183s3.03-1.357 3.082-3.13v-.105c-.052-1.722-1.358-3.13-3.082-3.13-1.724 0-3.082 1.408-3.082 3.182zm13.582-3.808a4.79 4.79 0 013.5-1.514c2.769 0 5.015 2.4 5.015 5.322s-2.246 5.322-5.015 5.322c-1.358 0-2.56-.574-3.5-1.513v5.06a.337.337 0 01-.313.314h-1.777a.337.337 0 01-.313-.313V7.356c0-.156.157-.313.313-.313h1.777c.156 0 .313.157.313.313v.94zm0 3.86c.052 1.722 1.41 3.13 3.082 3.13 1.724 0 3.082-1.408 3.082-3.182s-1.41-3.182-3.082-3.182c-1.724 0-3.03 1.408-3.082 3.13v.104z" fill="#4264FB"/><path d="M40.642 6.782c-1.306 0-2.508.783-3.082 1.983-.627-1.252-1.933-1.983-3.343-1.983-1.097 0-2.09.522-2.77 1.41v-.836a.337.337 0 00-.313-.313h-1.776a.337.337 0 00-.313.313v9.548c0 .157.157.313.313.313h1.776a.337.337 0 00.314-.313v-5.739c.052-1.252.94-2.296 2.037-2.296 1.15 0 2.09.94 2.09 2.192v5.843c0 .157.156.313.313.313h1.776a.337.337 0 00.314-.313v-5.948c.157-1.147.992-2.087 2.037-2.087 1.15 0 2.09.94 2.09 2.192v5.843c0 .157.156.313.313.313h1.776a.337.337 0 00.314-.313V10.33c-.105-1.982-1.777-3.548-3.866-3.548zm63.993 9.966l-3.082-4.696 3.029-4.643c.105-.105.053-.313-.104-.366-.052-.052-.105-.052-.157-.052h-2.037a.44.44 0 00-.366.209l-1.776 3.026-1.776-2.974c-.105-.156-.209-.209-.366-.209h-2.037c-.157 0-.261.105-.261.261 0 .052 0 .105.052.157l3.03 4.643-3.082 4.696c-.105.104-.052.313.104.365.053.052.105.052.157.052H98a.44.44 0 00.366-.208l1.828-3.027 1.829 3.027c.104.156.209.208.365.208h2.038c.156 0 .261-.104.261-.26 0-.105 0-.157-.052-.21z" fill="#4264FB"/><path fill-rule="evenodd" clip-rule="evenodd" d="M0 12.104C0 5.634 5.276.365 11.806.365c6.478 0 11.806 5.218 11.806 11.74 0 6.521-5.276 11.79-11.806 11.79C5.276 23.896 0 18.575 0 12.106zm6.164 5.635s7.157 1.305 11.232-2.713c2.194-2.243 2.142-5.948-.21-8.296-2.35-2.347-6.059-2.452-8.305-.208-4.023 4.07-2.717 11.217-2.717 11.217z" fill="#4264FB"/><path d="M13.112 7.252L11.962 9.6l-2.35 1.148 2.35 1.148 1.15 2.4 1.15-2.4 2.402-1.148L14.261 9.6l-1.15-2.348z" fill="#4264FB"/></svg>