<svg width="99" height="30" fill="none" xmlns="http://www.w3.org/2000/svg"><path fill-rule="evenodd" clip-rule="evenodd" d="M14.825.098C6.65.098 0 6.688 0 14.853c0 8.163 6.65 14.803 14.825 14.803 8.177 0 14.826-6.64 14.826-14.803C29.6 6.688 23 .097 14.825.097zm6.748 21.295a.897.897 0 01-1.28.296c-3.498-2.115-7.832-2.607-13.004-1.427-.492.099-.985-.196-1.083-.688-.099-.492.197-.984.69-1.082 5.664-1.279 10.49-.738 14.381 1.672a.84.84 0 01.296 1.23zm.246-3.639c.542.345 1.232.148 1.576-.393.345-.541.148-1.23-.295-1.574-4.58-2.803-11.28-3.59-16.648-1.967-.64.197-.985.836-.788 1.426.197.64.838.984 1.429.787 4.679-1.426 10.737-.738 14.726 1.721zm1.725-4.574c-4.778-2.852-12.659-3.098-17.19-1.721a1.352 1.352 0 01-1.724-.934c-.197-.689.197-1.476.936-1.673 5.22-1.573 13.939-1.278 19.406 1.968.64.393.886 1.23.492 1.918-.394.639-1.231.836-1.92.442zm13.74-1.377c0 .886.444 1.328 3.005 1.918 3.103.787 4.384 1.968 4.335 4.082 0 2.508-1.921 4.131-4.876 4.131a8.287 8.287 0 01-5.615-2.163c-.05-.05-.05-.197 0-.246l1.379-1.672s.049-.05.098-.05c0 0 .05 0 .099.05 1.379 1.18 2.61 1.672 4.088 1.672 1.33 0 2.167-.59 2.167-1.525 0-.836-.394-1.328-2.857-1.869-2.856-.688-4.531-1.574-4.531-4.13 0-2.362 1.92-4.034 4.679-4.034 1.872 0 3.497.59 4.925 1.722.099.098.099.196.05.245l-1.232 1.771s-.049.05-.098.05c-.05 0-.099 0-.148-.05-1.182-.885-2.364-1.328-3.497-1.328-1.182 0-1.97.59-1.97 1.426zm14.088-.59c-1.281 0-2.365.492-3.202 1.525v-1.18c0-.099-.098-.148-.148-.148h-2.265c-.099 0-.148.098-.148.147V24.59c0 .099.098.148.148.148h2.265c.099 0 .148-.099.148-.148v-4.082c.887.984 1.921 1.476 3.202 1.476 2.413 0 4.826-1.82 4.826-5.361 0-3.541-2.413-5.41-4.826-5.41zm-.542 8.41c1.625 0 2.709-1.279 2.709-3.05 0-1.77-1.133-3.048-2.709-3.048s-2.758 1.327-2.758 3.049c0 1.721 1.182 3.049 2.758 3.049zm11.575-8.41c-3.103 0-5.517 2.36-5.517 5.41 0 3 2.414 5.36 5.467 5.36 3.103 0 5.517-2.36 5.517-5.36.049-3.05-2.364-5.41-5.467-5.41zm-2.857 5.36c0 1.722 1.231 3.05 2.857 3.05 1.674 0 2.856-1.23 2.906-3 0-1.721-1.232-3.05-2.906-3.05-1.675 0-2.857 1.23-2.857 3zm14.924-5.163H71.96V8.852c0-.098-.099-.147-.148-.147h-2.266c-.098 0-.148.098-.148.147v2.558h-1.083c-.099 0-.148.098-.148.147v1.967c0 .099.099.148.148.148h1.083v5.066c0 2.065 1.035 3.098 3.054 3.098.837 0 1.478-.148 2.118-.541.05-.05.099-.098.099-.148V19.28c0-.05-.05-.099-.099-.148-.05-.05-.098-.05-.148 0-.443.197-.886.344-1.33.344-.738 0-1.083-.344-1.083-1.082v-4.721h2.512c.098 0 .147-.098.147-.148v-1.967c0-.049-.098-.147-.197-.147zm8.767-.246v.295l3.94.05c.05 0 .099.048.148.098l2.66 6.983 2.462-6.983c0-.05.099-.099.148-.099h2.167c.05 0 .099 0 .148.05v.147l-3.99 10.23c-.837 2.114-1.773 2.901-3.447 2.901-.936 0-1.675-.197-2.463-.64-.05 0-.099-.098-.05-.196l.789-1.721c0-.05.049-.099.098-.099.033-.032.066-.022.099-.01.016.005.033.01.049.01.443.246.886.345 1.28.345.493 0 .838-.148 1.232-.984l-3.25-7.82H83.14v7.87c0 .048-.05.147-.148.147h-2.265c-.05 0-.148-.05-.148-.148v-7.82h-1.084c-.049 0-.147-.049-.147-.147v-1.967c0-.05.049-.148.147-.148h1.084v-.492c0-2.262 1.133-3.442 3.25-3.442.887 0 1.478.147 1.922.295.049 0 .098.098.098.147v1.918c0 .05 0 .099-.05.148h-.147c-.443-.148-.788-.246-1.28-.246-.788 0-1.133.393-1.133 1.328zm-5.073.246H75.9c-.098 0-.148.098-.148.147v9.984c0 .098.099.148.148.148h2.266c.098 0 .148-.099.148-.148v-9.934c.049-.099-.05-.197-.148-.197zm-2.759-2.902c0-.885.739-1.623 1.626-1.623.935 0 1.625.738 1.625 1.623s-.739 1.623-1.625 1.623a1.639 1.639 0 01-1.626-1.623zm21.672 6.148a1.639 1.639 0 01-1.625-1.623c0-.885.69-1.623 1.625-1.623.936 0 1.625.738 1.625 1.623s-.69 1.623-1.625 1.623zm-1.428-1.623c0-.836.59-1.476 1.428-1.476s1.478.64 1.429 1.427c0 .836-.591 1.475-1.429 1.475-.788 0-1.428-.64-1.428-1.426zm1.822.147l.444.64h-.395l-.394-.59h-.344v.59h-.345v-1.672h.739c.394 0 .64.196.64.54.05.246-.148.443-.345.492zm-.739-.737h.444c.197 0 .344.049.344.295 0 .147-.147.246-.344.246h-.444v-.541z" fill="#1ED760"/></svg>