<svg width="10" height="8" viewBox="0 0 10 8" fill="none" xmlns="http://www.w3.org/2000/svg">
<path d="M3.39843 7.30467L0.136718 4.06249C0.0455727 3.97134 0 3.85416 0 3.71093C0 3.5677 0.0455727 3.45051 0.136718 3.35937L0.859373 2.65624C0.950519 2.55208 1.06445 2.5 1.20117 2.5C1.33789 2.5 1.45833 2.55208 1.5625 2.65624L3.74999 4.84374L8.43748 0.15625C8.54165 0.0520833 8.66209 0 8.79881 0C8.93553 0 9.04946 0.0520833 9.1406 0.15625L9.86326 0.859373C9.9544 0.950519 9.99998 1.06771 9.99998 1.21093C9.99998 1.35416 9.9544 1.47135 9.86326 1.5625L4.10155 7.30467C4.01041 7.40884 3.89322 7.46092 3.74999 7.46092C3.60676 7.46092 3.48958 7.40884 3.39843 7.30467Z" fill="#36B37E"/>
</svg>
