<svg width="10" height="15" viewBox="0 0 10 15" fill="none" xmlns="http://www.w3.org/2000/svg">
<path d="M5.53906 8.21875C6.91406 8.57031 7.48438 9.09375 7.48438 9.98438C7.48438 10.9453 6.71094 11.6484 5.53906 11.7969V8.21875ZM4.55469 6.32031C3.28125 5.96875 2.76562 5.48438 2.76562 4.64062C2.76562 3.71094 3.44531 3.07031 4.55469 2.92969V6.32031ZM5.53906 6.5625V2.9375C6.55469 3.09375 7.24219 3.73438 7.35938 4.66406H8.92969C8.85156 2.89844 7.50781 1.66406 5.53906 1.48438V0.625H4.55469V1.47656C2.46094 1.64062 1.11719 2.89844 1.11719 4.74219C1.11719 6.40625 2.09375 7.41406 4.19531 7.90625L4.55469 7.99219V11.7969C3.36719 11.6484 2.5625 10.9609 2.44531 9.96875H0.84375C0.945312 11.8672 2.36719 13.1016 4.55469 13.25V14.1016H5.53906V13.2422C7.75 13.0703 9.13281 11.7812 9.13281 9.83594C9.13281 8.125 8.19531 7.17969 5.94531 6.65625L5.53906 6.5625Z" fill="#5A7184"/>
</svg>
