<svg width="40" height="40" viewBox="0 0 40 40" fill="none" xmlns="http://www.w3.org/2000/svg">
<path fill-rule="evenodd" clip-rule="evenodd" d="M5.59995 3.20001H15.2C16.5254 3.20001 17.6 4.27453 17.6 5.60001V15.2C17.6 16.5255 16.5254 17.6 15.2 17.6H5.59995C4.27447 17.6 3.19995 16.5255 3.19995 15.2V5.60001C3.19995 4.27453 4.27447 3.20001 5.59995 3.20001ZM24.8 22.4H34.4C35.7254 22.4 36.7999 23.4745 36.7999 24.8V34.4C36.7999 35.7255 35.7254 36.8 34.4 36.8H24.8C23.4745 36.8 22.4 35.7255 22.4 34.4V24.8C22.4 23.4745 23.4745 22.4 24.8 22.4Z" fill="#1565D8"/>
<path opacity="0.3" fill-rule="evenodd" clip-rule="evenodd" d="M24.8 3.20001H34.4C35.7254 3.20001 36.7999 4.27453 36.7999 5.60001V15.2C36.7999 16.5255 35.7254 17.6 34.4 17.6H24.8C23.4745 17.6 22.4 16.5255 22.4 15.2V5.60001C22.4 4.27453 23.4745 3.20001 24.8 3.20001ZM5.59995 22.4H15.2C16.5254 22.4 17.6 23.4745 17.6 24.8V34.4C17.6 35.7255 16.5254 36.8 15.2 36.8H5.59995C4.27447 36.8 3.19995 35.7255 3.19995 34.4V24.8C3.19995 23.4745 4.27447 22.4 5.59995 22.4Z" fill="#1565D8"/>
</svg>
