<svg width="40" height="40" viewBox="0 0 40 40" fill="none" xmlns="http://www.w3.org/2000/svg">
<path opacity="0.3" fill-rule="evenodd" clip-rule="evenodd" d="M25.6 28.8V36C25.6 37.3255 24.5254 38.4 23.2 38.4H5.59995C4.27447 38.4 3.19995 37.3255 3.19995 36V18.4C3.19995 17.0745 4.27447 16 5.59995 16H12.8V24.8C12.8 27.0091 14.5908 28.8 16.8 28.8H25.6Z" fill="#1565D8"/>
<path fill-rule="evenodd" clip-rule="evenodd" d="M16.7999 4.79999H34.3999C35.7254 4.79999 36.7999 5.8745 36.7999 7.19999V24.8C36.7999 26.1255 35.7254 27.2 34.3999 27.2H16.7999C15.4744 27.2 14.3999 26.1255 14.3999 24.8V7.19999C14.3999 5.8745 15.4744 4.79999 16.7999 4.79999Z" fill="#1565D8"/>
</svg>
