<svg width="40" height="40" viewBox="0 0 40 40" fill="none" xmlns="http://www.w3.org/2000/svg">
<path opacity="0.3" fill-rule="evenodd" clip-rule="evenodd" d="M19.2455 31.7549L20.3794 32.8888C20.8409 33.3503 20.8409 34.0985 20.3794 34.56C19.9179 35.0215 19.1697 35.0215 18.7082 34.56L15.557 31.4088C15.0955 30.9473 15.0955 30.1991 15.557 29.7376L18.7082 26.5864C19.1697 26.1249 19.9179 26.1249 20.3794 26.5864C20.8409 27.0478 20.8409 27.7961 20.3794 28.2575L19.2455 29.3915H27.028V31.7549H19.2455ZM31.7548 19.8422L32.8887 18.7083C33.3502 18.2468 34.0984 18.2468 34.5599 18.7083C35.0214 19.1698 35.0214 19.918 34.5599 20.3795L31.4087 23.5307C31.178 23.7615 30.8755 23.8768 30.5731 23.8768C30.2707 23.8768 29.9683 23.7615 29.7375 23.5307L26.5863 20.3795C26.1248 19.918 26.1248 19.1698 26.5863 18.7083C27.0478 18.2468 27.796 18.2468 28.2575 18.7083L29.3914 19.8422V12.0598H31.7548V19.8422ZM19.8422 9.69634H12.0597V7.33293H19.8422L18.7082 6.19901C18.2468 5.73752 18.2468 4.98931 18.7082 4.52782C19.1697 4.06634 19.9179 4.06634 20.3794 4.52782L23.5306 7.67904C23.9921 8.14053 23.9921 8.88874 23.5306 9.35023L20.3794 12.5014C19.9179 12.9629 19.1697 12.9629 18.7082 12.5014C18.2468 12.04 18.2468 11.2917 18.7082 10.8303L19.8422 9.69634ZM7.33286 19.2456L6.19894 20.3795C5.73746 20.841 4.98924 20.841 4.52775 20.3795C4.06627 19.918 4.06627 19.1698 4.52775 18.7083L7.67897 15.5571C8.14046 15.0956 8.88868 15.0956 9.35016 15.5571L12.5014 18.7083C12.9629 19.1698 12.9629 19.918 12.5014 20.3795C12.0399 20.841 11.2917 20.841 10.8302 20.3795L9.69627 19.2456V27.028H7.33286V19.2456Z" fill="#1565D8"/>
<path fill-rule="evenodd" clip-rule="evenodd" d="M14.0293 11.6659V5.36341C14.0293 4.05814 12.9711 3 11.6659 3H5.36341C4.05814 3 3 4.05814 3 5.36341V11.6659C3 12.9711 4.05814 14.0293 5.36341 14.0293H11.6659C12.9711 14.0293 14.0293 12.9711 14.0293 11.6659ZM11.6659 25.0585H5.36341C4.05814 25.0585 3 26.1167 3 27.422V33.7244C3 35.0297 4.05814 36.0878 5.36341 36.0878H11.6659C12.9711 36.0878 14.0293 35.0297 14.0293 33.7244V27.422C14.0293 26.1167 12.9711 25.0585 11.6659 25.0585ZM33.7244 14.0293H27.422C26.1167 14.0293 25.0585 12.9711 25.0585 11.6659V5.36341C25.0585 4.05814 26.1167 3 27.422 3H33.7244C35.0297 3 36.0878 4.05814 36.0878 5.36341V11.6659C36.0878 12.9711 35.0297 14.0293 33.7244 14.0293ZM25.0585 27.422V33.7244C25.0585 35.0297 26.1167 36.0878 27.422 36.0878H33.7244C35.0297 36.0878 36.0878 35.0297 36.0878 33.7244V27.422C36.0878 26.1167 35.0297 25.0585 33.7244 25.0585H27.422C26.1167 25.0585 25.0585 26.1167 25.0585 27.422Z" fill="#1565D8"/>
</svg>
