<svg width="41" height="40" viewBox="0 0 41 40" fill="none" xmlns="http://www.w3.org/2000/svg">
<path fill-rule="evenodd" clip-rule="evenodd" d="M11.7788 15.7021C13.8815 12.7139 15.1941 9.28511 15.7206 5.40334C15.7708 5.03356 16.0325 4.72608 16.3918 4.61489C20.0129 3.49425 22.0717 5.27503 22.0376 9.33558C22.031 10.1238 21.9947 10.8244 21.9172 11.8959C21.7443 14.2892 21.758 14.9424 22.026 15.3819C22.2836 15.8044 23.1198 15.9486 25.0975 15.5731C25.7216 15.4546 26.3476 15.3203 27.041 15.159C27.3471 15.0878 29.5518 14.5498 30.1153 14.4282C31.1904 14.196 31.9617 14.0978 32.64 14.1394C34.4775 14.2521 35.4526 15.4352 35.6211 17.7018C35.9178 21.6935 35.0009 29.7113 34.0863 32.6646C33.1516 35.6825 31.5216 36.8216 27.609 36.8904C25.0934 36.9346 21.2244 36.9346 15.9839 36.8903C14.6461 36.8592 13.4338 36.6001 12.3554 36.1158C12.6581 35.489 12.8276 34.787 12.8276 34.0456V18.6856C12.8276 17.5581 12.4354 16.5213 11.7788 15.7021Z" fill="#1565D8"/>
<path opacity="0.3" fill-rule="evenodd" clip-rule="evenodd" d="M6.04857 15.8057C4.44404 15.8057 3.14331 17.0951 3.14331 18.6857V34.0457C3.14331 35.6362 4.44404 36.9257 6.04857 36.9257H7.98542C9.58995 36.9257 10.8907 35.6362 10.8907 34.0457V18.6857C10.8907 17.0951 9.58995 15.8057 7.98542 15.8057H6.04857Z" fill="#1565D8"/>
</svg>
