<svg width="19" height="15" viewBox="0 0 19 15" fill="none" xmlns="http://www.w3.org/2000/svg">
<path d="M6.875 7.75C8.78906 7.75 10.375 6.19141 10.375 4.25C10.375 2.33594 8.78906 0.75 6.875 0.75C4.93359 0.75 3.375 2.33594 3.375 4.25C3.375 6.19141 4.93359 7.75 6.875 7.75ZM9.30859 8.625H8.84375C8.24219 8.92578 7.58594 9.0625 6.875 9.0625C6.16406 9.0625 5.48047 8.92578 4.87891 8.625H4.41406C2.39062 8.625 0.75 10.293 0.75 12.3164V13.4375C0.75 14.1758 1.32422 14.75 2.0625 14.75H11.6875C12.3984 14.75 13 14.1758 13 13.4375V12.3164C13 10.293 11.332 8.625 9.30859 8.625ZM18.1406 5.125L17.375 4.35938C17.2656 4.22266 17.0469 4.22266 16.9375 4.35938L14.0664 7.20312L12.8086 5.94531C12.6992 5.80859 12.4805 5.80859 12.3438 5.94531L11.5781 6.71094C11.4688 6.82031 11.4688 7.03906 11.5781 7.17578L13.8203 9.41797C13.957 9.55469 14.1484 9.55469 14.2852 9.41797L18.1406 5.58984C18.2773 5.45312 18.2773 5.26172 18.1406 5.125Z" fill="white"/>
</svg>
