<svg width="99" height="30" viewBox="0 0 99 30" fill="none" xmlns="http://www.w3.org/2000/svg">
<path fill-rule="evenodd" clip-rule="evenodd" d="M14.8254 0.0983887C6.64925 0.0983887 0 6.68855 0 14.8525C0 23.0164 6.64925 29.6558 14.8254 29.6558C23.0015 29.6558 29.6507 23.0164 29.6507 14.8525C29.6015 6.68855 23.0015 0.0983887 14.8254 0.0983887ZM21.5731 21.3935C21.3268 21.8361 20.7357 21.9837 20.2925 21.6886C16.7954 19.5738 12.4611 19.082 7.28947 20.2623C6.79693 20.3607 6.30439 20.0656 6.20589 19.5738C6.10738 19.082 6.4029 18.5902 6.89544 18.4919C12.5596 17.2132 17.3865 17.7541 21.2775 20.164C21.7208 20.4099 21.8686 20.9509 21.5731 21.3935ZM21.8194 17.7542C22.3612 18.0985 23.0508 17.9018 23.3955 17.3608C23.7403 16.8198 23.5433 16.1313 23.1 15.787C18.5194 12.9837 11.8209 12.1969 6.45226 13.8198C5.81196 14.0165 5.46718 14.6559 5.6642 15.246C5.86121 15.8854 6.50151 16.2296 7.09256 16.0329C11.7717 14.6067 17.8299 15.2952 21.8194 17.7542ZM23.5435 13.1803C18.7659 10.3278 10.8853 10.0819 6.35393 11.4589C5.61512 11.7048 4.82706 11.2622 4.63005 10.5245C4.43303 9.836 4.82706 9.04911 5.56587 8.85239C10.7868 7.27862 19.5047 7.5737 24.9718 10.8196C25.6121 11.213 25.8584 12.0491 25.4644 12.7376C25.0703 13.377 24.233 13.5737 23.5435 13.1803ZM37.2849 11.8034C37.2849 12.6886 37.7282 13.1312 40.2894 13.7214C43.3923 14.5083 44.6729 15.6886 44.6237 17.8034C44.6237 20.3115 42.7028 21.9345 39.7476 21.9345C37.6789 21.9345 35.7088 21.1968 34.1326 19.7706C34.0834 19.7214 34.0834 19.5738 34.1326 19.5247L35.5117 17.8525C35.5117 17.8525 35.561 17.8034 35.6103 17.8034C35.6103 17.8034 35.6595 17.8034 35.7088 17.8525C37.0879 19.0329 38.3192 19.5247 39.7968 19.5247C41.1267 19.5247 41.964 18.9345 41.964 18.0001C41.964 17.164 41.57 16.6722 39.1073 16.1312C36.2506 15.4427 34.5759 14.5574 34.5759 12.0001C34.5759 9.63942 36.4968 7.96729 39.255 7.96729C41.1267 7.96729 42.752 8.55745 44.1804 9.6886C44.2789 9.78696 44.2789 9.88532 44.2297 9.9345L42.9983 11.705C42.9983 11.705 42.9491 11.7542 42.8998 11.7542C42.8506 11.7542 42.8013 11.7542 42.752 11.705C41.57 10.8197 40.3879 10.3771 39.255 10.3771C38.0729 10.3771 37.2849 10.9673 37.2849 11.8034ZM51.3716 11.2131C50.091 11.2131 49.0074 11.7049 48.1701 12.7377V11.5574C48.1701 11.459 48.0716 11.4099 48.0223 11.4099H45.7566C45.6581 11.4099 45.6089 11.5082 45.6089 11.5574V24.5902C45.6089 24.6885 45.7074 24.7377 45.7566 24.7377H48.0223C48.1208 24.7377 48.1701 24.6394 48.1701 24.5902V20.5082C49.0566 21.4918 50.091 21.9836 51.3716 21.9836C53.785 21.9836 56.1984 20.164 56.1984 16.623C56.1984 13.082 53.785 11.2131 51.3716 11.2131ZM50.83 19.623C52.4554 19.623 53.5389 18.3443 53.5389 16.5738C53.5389 14.8033 52.4061 13.5247 50.83 13.5247C49.2539 13.5247 48.0718 14.8525 48.0718 16.5738C48.0718 18.2952 49.2539 19.623 50.83 19.623ZM62.4046 11.2131C59.3016 11.2131 56.8882 13.5738 56.8882 16.623C56.8882 19.623 59.3016 21.9836 62.3553 21.9836C65.4583 21.9836 67.8718 19.623 67.8718 16.623C67.921 13.5738 65.5076 11.2131 62.4046 11.2131ZM59.5479 16.5737C59.5479 18.295 60.7792 19.6229 62.4046 19.6229C64.0792 19.6229 65.2613 18.3934 65.3105 16.6229C65.3105 14.9016 64.0792 13.5737 62.4046 13.5737C60.7299 13.5737 59.5479 14.8032 59.5479 16.5737ZM74.4715 11.4098H71.9595V8.85238C71.9595 8.75401 71.861 8.70483 71.8118 8.70483H69.5461C69.4476 8.70483 69.3983 8.80319 69.3983 8.85238V11.4098H68.3148C68.2162 11.4098 68.167 11.5081 68.167 11.5573V13.5245C68.167 13.6229 68.2655 13.672 68.3148 13.672H69.3983V18.7376C69.3983 20.8032 70.4327 21.836 72.4521 21.836C73.2894 21.836 73.9297 21.6884 74.57 21.295C74.6192 21.2458 74.6685 21.1966 74.6685 21.1475V19.2786C74.6685 19.2294 74.6192 19.1802 74.57 19.1311C74.5207 19.0819 74.4715 19.0819 74.4222 19.1311C73.9789 19.3278 73.5357 19.4753 73.0924 19.4753C72.3536 19.4753 72.0088 19.1311 72.0088 18.3934V13.672H74.5207C74.6192 13.672 74.6685 13.5737 74.6685 13.5245V11.5573C74.6685 11.5081 74.57 11.4098 74.4715 11.4098ZM83.2387 11.1639V11.459L87.179 11.5082C87.2283 11.5082 87.2775 11.5573 87.3268 11.6065L89.9865 18.5901L92.4492 11.6065C92.4492 11.5573 92.5477 11.5082 92.5969 11.5082H94.7641C94.8133 11.5082 94.8626 11.5082 94.9118 11.5573V11.7049L90.9223 21.9344C90.085 24.0491 89.1491 24.836 87.4745 24.836C86.5387 24.836 85.7999 24.6393 85.0118 24.1967C84.9626 24.1967 84.9133 24.0983 84.9626 24L85.7506 22.2786C85.7506 22.2295 85.7999 22.1803 85.8492 22.1803C85.882 22.1475 85.9148 22.1584 85.9477 22.1694C85.9641 22.1748 85.9805 22.1803 85.9969 22.1803C86.4402 22.4262 86.8835 22.5246 87.2775 22.5246C87.77 22.5246 88.1148 22.377 88.5089 21.5409L85.2581 13.7213H83.1402V21.5901C83.1402 21.6393 83.0909 21.7377 82.9924 21.7377H80.7268C80.6775 21.7377 80.579 21.6885 80.579 21.5901V13.7705H79.4954C79.4462 13.7705 79.3477 13.7213 79.3477 13.6229V11.6557C79.3477 11.6065 79.3969 11.5082 79.4954 11.5082H80.579V11.0164C80.579 8.75406 81.7118 7.57373 83.8297 7.57373C84.7163 7.57373 85.3074 7.72127 85.7506 7.86881C85.7999 7.86881 85.8492 7.96717 85.8492 8.01635V9.93439C85.8492 9.98357 85.8492 10.0327 85.7999 10.0819H85.6521C85.2088 9.93439 84.8641 9.83603 84.3715 9.83603C83.5835 9.83603 83.2387 10.2295 83.2387 11.1639ZM78.1659 11.4099H75.9002C75.8017 11.4099 75.7524 11.5083 75.7524 11.5575V21.5411C75.7524 21.6394 75.851 21.6886 75.9002 21.6886H78.1659C78.2644 21.6886 78.3136 21.5902 78.3136 21.5411V11.6066C78.3629 11.5083 78.2644 11.4099 78.1659 11.4099ZM75.4072 8.5082C75.4072 7.62296 76.146 6.88525 77.0326 6.88525C77.9684 6.88525 78.658 7.62296 78.658 8.5082C78.658 9.39345 77.9192 10.1312 77.0326 10.1312C76.146 10.1312 75.4072 9.39345 75.4072 8.5082ZM97.079 14.6558C96.1924 14.6558 95.4536 13.9181 95.4536 13.0329C95.4536 12.1476 96.1432 11.4099 97.079 11.4099C98.0148 11.4099 98.7044 12.1476 98.7044 13.0329C98.7044 13.9181 98.0148 14.6558 97.079 14.6558ZM95.6509 13.0328C95.6509 12.1967 96.2419 11.5574 97.0792 11.5574C97.9165 11.5574 98.5568 12.1967 98.5076 12.9836C98.5076 13.8197 97.9165 14.459 97.0792 14.459C96.2912 14.459 95.6509 13.8197 95.6509 13.0328ZM97.4733 13.1802L97.9166 13.8196H97.5225L97.1285 13.2294H96.7837V13.8196H96.439V12.1475H97.1778C97.5718 12.1475 97.8181 12.3442 97.8181 12.6884C97.8673 12.9343 97.6703 13.1311 97.4733 13.1802ZM96.7344 12.4426H97.1777C97.3747 12.4426 97.5224 12.4918 97.5224 12.7377C97.5224 12.8853 97.3747 12.9836 97.1777 12.9836H96.7344V12.4426Z" fill="#1ED760"/>
</svg>
